,
Brought to you by  http://www.scenetime.com/signup.php
 
 Hottest scene tracker on the net !!!   
 
No fake torrents from scenebalance 
shame on those who comment fake before downloading my torrents

    seed back for speed


 



...................................NFO:.................................................General 
Complete name : Chop Kick Panda 2011 DVDRip Xvid AC3-Freebee.avi 
Format : AVI 
Format/Info : Audio Video Interleave 
File size : 557 MiB 
Duration : 41mn 2s 
Overall bit rate : 1 898 Kbps 

Video 
ID : 0 
Format : MPEG-4 Visual 
Format profile : Advanced Simple@L5 
Format settings, BVOP : 2 
Format settings, QPel : No 
Format settings, GMC : No warppoints 
Format settings, Matrix : Default (H.263) 
Codec ID : XVID 
Codec ID/Hint : XviD 
Duration : 41mn 2s 
Bit rate : 1 441 Kbps 
Width : 720 pixels 
Height : 400 pixels 
Display aspect ratio : 16:9 
Frame rate : 23.976 fps 
Color space : YUV 
Chroma subsampling : 4:2:0 
Bit depth : 8 bits 
Scan type : Progressive 
Compression mode : Lossy 
Bits/(Pixel*Frame) : 0.209 
Stream size : 423 MiB (76%) 
Writing library : XviD 63 

Audio 
ID : 1 
Format : AC-3 
Format/Info : Audio Coding 3 
Mode extension : CM (complete main) 
Codec ID : 2000 
Duration : 41mn 2s 
Bit rate mode : Constant 
Bit rate : 448 Kbps 
Channel(s) : 6 channels 
Channel positions : Front: L C R, Side: L R, LFE 
Sampling rate : 48.0 KHz 
Bit depth : 16 bits 
Compression mode : Lossy 
Stream size : 132 MiB (24%) 
Alignment : Split accross interleaves 
Interleave, duration : 42 ms (1.00 video frame) 
Interleave, preload duration : 500 ms 


   
              Language.............: English
              Subtitle.............: None
              Imdb-Rating..........: None
              Imdb.................: None
              Video-Source.........: My Own
              Audio-Source.........: My Own
              Encoder..............: Freebee269
              Plot.................: Lu is a large (okay, fat) lovable
 panda who is the sixth generation owner of the Tae Kwon Do dojo. What
 Lu doesn t know is that buried beneath the dojo is the ancient Amulet
 of Fury. The mythical amulet gives its owner ultimate power and
 protection. When the villainous tiger warrior, Kudo, terrorizes the
 small village in pursuit of the amulet, it s up to Lu and his rag-tag
 team of martial artists to stop him! 
   
                    
                    Sample Included
                    


                    
                    Greets: All P2P Groups!
                    

 
                                          
                           Respects                  
                    
                     SANTi, TOXiCiNK, LKRG 
                    NPW, FLAWL3SS, BDK, CM8
                      IMAGiNE, ViSiON, Rx  
                          Legion, *THC*